<svg width="57" height="57" viewBox="0 0 57 57" fill="none" xmlns="http://www.w3.org/2000/svg">
<circle cx="28.5" cy="28.5" r="28.5" fill="url(#paint0_linear_76_4)"/>
<path d="M44.4375 22.2917V29.9584M13.2056 21.573L26.9775 15.317C27.4568 15.0993 27.9755 14.9868 28.5 14.9868C29.0245 14.9868 29.5432 15.0993 30.0225 15.317L43.7944 21.573C43.9306 21.6345 44.0464 21.7352 44.1277 21.8628C44.209 21.9904 44.2523 22.1394 44.2523 22.2917C44.2523 22.444 44.209 22.593 44.1277 22.7206C44.0464 22.8482 43.9306 22.9489 43.7944 23.0105L30.0225 29.2665C29.5432 29.4842 29.0245 29.5966 28.5 29.5966C27.9755 29.5966 27.4568 29.4842 26.9775 29.2665L13.2056 23.0105C13.0694 22.9489 12.9536 22.8482 12.8723 22.7206C12.7909 22.593 12.7477 22.444 12.7477 22.2917C12.7477 22.1394 12.7909 21.9904 12.8723 21.8628C12.9536 21.7352 13.0694 21.6345 13.2056 21.573Z" stroke="#FAFAFA" stroke-width="3" stroke-linecap="round" stroke-linejoin="round"/>
<path d="M18.1875 26.125V35.7083C18.1875 35.7083 19.125 39.5417 28.5 39.5417C37.875 39.5417 38.8125 35.7083 38.8125 35.7083V26.125" stroke="#FAFAFA" stroke-width="3" stroke-linecap="round" stroke-linejoin="round"/>
<defs>
<linearGradient id="paint0_linear_76_4" x1="28.5" y1="0" x2="28.5" y2="57" gradientUnits="userSpaceOnUse">
<stop stop-color="#C99886"/>
<stop offset="1" stop-color="#C58F85"/>
</linearGradient>
</defs>
</svg>
