<svg width="57" height="57" viewBox="0 0 57 57" fill="none" xmlns="http://www.w3.org/2000/svg">
<circle cx="28.5" cy="28.5" r="28.5" fill="url(#paint0_linear_76_3)"/>
<g clip-path="url(#clip0_76_3)">
<path d="M35.4643 12.1786H39.6429C40.3817 12.1786 41.0902 12.4721 41.6127 12.9945C42.1351 13.5169 42.4286 14.2255 42.4286 14.9643V42.8214C42.4286 43.5603 42.1351 44.2688 41.6127 44.7912C41.0902 45.3137 40.3817 45.6072 39.6429 45.6072H17.3571C16.6183 45.6072 15.9098 45.3137 15.3873 44.7912C14.8649 44.2688 14.5714 43.5603 14.5714 42.8214V14.9643C14.5714 14.2255 14.8649 13.5169 15.3873 12.9945C15.9098 12.4721 16.6183 12.1786 17.3571 12.1786H21.5357" stroke="white" stroke-width="3" stroke-linecap="round" stroke-linejoin="round"/>
<path d="M32.6786 9.39282H24.3214C23.5826 9.39282 22.8741 9.68632 22.3516 10.2087C21.8292 10.7312 21.5357 11.4397 21.5357 12.1785V13.5714C21.5357 14.3102 21.8292 15.0188 22.3516 15.5412C22.8741 16.0636 23.5826 16.3571 24.3214 16.3571H32.6786C33.4174 16.3571 34.1259 16.0636 34.6484 15.5412C35.1708 15.0188 35.4643 14.3102 35.4643 13.5714V12.1785C35.4643 11.4397 35.1708 10.7312 34.6484 10.2087C34.1259 9.68632 33.4174 9.39282 32.6786 9.39282ZM26.5584 22.5135C26.2407 22.5135 25.936 22.6397 25.7113 22.8644C25.4867 23.089 25.3605 23.3937 25.3605 23.7114V27.0738H21.9981C21.6805 27.0738 21.3758 27.2 21.1511 27.4246C20.9265 27.6492 20.8003 27.9539 20.8003 28.2716V32.1577C20.8003 32.8179 21.3379 33.3555 21.9981 33.3555H25.3605V36.7179C25.3605 37.3781 25.8981 37.9158 26.5584 37.9158H30.4444C30.7621 37.9158 31.0668 37.7896 31.2914 37.5649C31.5161 37.3403 31.6423 37.0356 31.6423 36.7179V33.35H35.0046C35.3223 33.35 35.627 33.2238 35.8517 32.9991C36.0763 32.7745 36.2025 32.4698 36.2025 32.1521V28.2716C36.2018 27.9544 36.0752 27.6504 35.8507 27.4264C35.6261 27.2024 35.3219 27.0765 35.0046 27.0765H31.6423V23.7086C31.6415 23.3914 31.515 23.0874 31.2905 22.8634C31.0659 22.6394 30.7616 22.5135 30.4444 22.5135H26.5584Z" stroke="white" stroke-width="3" stroke-linecap="round" stroke-linejoin="round"/>
</g>
<defs>
<linearGradient id="paint0_linear_76_3" x1="28.5" y1="0" x2="28.5" y2="57" gradientUnits="userSpaceOnUse">
<stop stop-color="#C99886"/>
<stop offset="1" stop-color="#C58F85"/>
</linearGradient>
<clipPath id="clip0_76_3">
<rect width="39" height="39" fill="white" transform="translate(9 8)"/>
</clipPath>
</defs>
</svg>
